# xmcd CD database file
#
# Track frame offsets:
#	150
#	25467
#	44123
#	66745
#	86043
#	103830
#	119642
#	132695
#	151302
#	160412
#	178568
#	192136
#	207704
#	229875
#
# Disc length: 3305 seconds
#
# Revision: 2
# Processed by: cddbd v1.4PL0 Copyright (c) Steve Scherf et al.
# Submitted via: CDex 1.40Release
#
DISCID=e00ce70e
DTITLE=Blue Breeze - JUMP
DYEAR=2000
DGENRE=Blues
TTITLE0=Jump
TTITLE1=Rumba Train
TTITLE2=Go Johnny Paul
TTITLE3=Good Moring Dr. Blues
TTITLE4=Crying Dust
TTITLE5=Candy Handy
TTITLE6=Definitely Happy
TTITLE7=Got It
TTITLE8=Mecki
TTITLE9=Big Boss Man
TTITLE10=The Wolf
TTITLE11=Wish
TTITLE12=Since You're Around
TTITLE13=Monika
EXTD=YEAR: 2000 ID3G: 0
EXTT0=
EXTT1=
EXTT2=
EXTT3=
EXTT4=
EXTT5=
EXTT6=
EXTT7=
EXTT8=
EXTT9=
EXTT10=
EXTT11=
EXTT12=
EXTT13=
PLAYORDER=
